Coordinates
version=1
nRows=17
nColumns=40
inDegrees=yes

Units are S.I. units (second, meters, Newtons, ...)
If the header above contains a line with 'inDegrees', this indicates whether rotational values are in degrees (yes) or radians (no).

endheader
time	pelvis_tilt	pelvis_list	pelvis_rotation	pelvis_tx	pelvis_ty	pelvis_tz	hip_flexion_r	hip_adduction_r	hip_rotation_r	knee_angle_r	knee_angle_r_beta	ankle_angle_r	subtalar_angle_r	mtp_angle_r	hip_flexion_l	hip_adduction_l	hip_rotation_l	knee_angle_l	knee_angle_l_beta	ankle_angle_l	subtalar_angle_l	mtp_angle_l	lumbar_extension	lumbar_bending	lumbar_rotation	arm_flex_r	arm_add_r	arm_rot_r	elbow_flex_r	pro_sup_r	wrist_flex_r	wrist_dev_r	arm_flex_l	arm_add_l	arm_rot_l	elbow_flex_l	pro_sup_l	wrist_flex_l	wrist_dev_l
      3.81500000	    -19.80789022	      2.18696995	      2.31958031	     -0.39504985	      0.77572890	     -0.78296381	     63.56216483	     -0.73681346	    -10.07458967	     74.66395569	      1.30313186	     20.95585798	      0.00000000	      0.00000000	     40.39682265	    -15.56136559	      3.83706319	     92.40540571	      1.61277858	    -17.30017648	      0.00000000	      0.00000000	     -9.29859502	    -22.69532425	    -19.18195580	     72.28311971	    -12.18451805	      9.26959365	     60.54857262	     87.44290030	      0.00000000	      0.00000000	     89.95883481	      8.91369068	     33.82017147	     40.69445323	     58.76701232	      0.00000000	      0.00000000
      3.82000000	    -19.71126949	      2.13538820	      2.32515959	     -0.39457821	      0.77770748	     -0.78290207	     63.19486914	     -0.68393149	    -10.12767421	     74.20296212	      1.29508600	     20.76576440	      0.00000000	      0.00000000	     40.30903772	    -15.54081881	      3.86811351	     92.32834987	      1.61143370	    -17.33342564	      0.00000000	      0.00000000	     -9.27163841	    -22.62115354	    -19.06306076	     72.22476065	    -12.22283286	      9.21535083	     60.54684471	     87.43956325	      0.00000000	      0.00000000	     89.95859322	      8.94676449	     33.88277747	     40.64241219	     58.83173749	      0.00000000	      0.00000000
      3.82500000	    -19.70020620	      2.20035540	      2.33002904	     -0.39440621	      0.77938717	     -0.78306143	     62.99527746	     -0.73680314	    -10.09707025	     73.88408052	      1.28952047	     20.63375514	      0.00000000	      0.00000000	     40.33519653	    -15.44308545	      3.74593308	     92.33031720	      1.61146803	    -17.34086064	      0.00000000	      0.00000000	     -9.18157707	    -22.64750177	    -19.00322596	     72.24568893	    -12.26244597	      9.20867430	     60.55057476	     87.44076904	      0.00000000	      0.00000000	     89.95864274	      8.96351674	     33.89782766	     40.62583721	     58.87380582	      0.00000000	      0.00000000
      3.83000000	    -19.71416690	      2.25246061	      2.32196939	     -0.39406883	      0.78123945	     -0.78313521	     62.77520948	     -0.75974289	    -10.05829150	     73.48414697	      1.28254031	     20.48048206	      0.00000000	      0.00000000	     40.35717034	    -15.33116194	      3.66843495	     92.26189703	      1.61027388	    -17.31970004	      0.00000000	      0.00000000	     -9.06910810	    -22.70167877	    -18.97889854	     72.21613629	    -12.27274690	      9.20732724	     60.55775029	     87.44029981	      0.00000000	      0.00000000	     89.95864747	      8.96777473	     33.91452315	     40.61124714	     58.91248769	      0.00000000	      0.00000000
      3.83500000	    -19.70907088	      2.28538268	      2.34012259	     -0.39381881	      0.78307498	     -0.78319415	     62.54357201	     -0.77834853	    -10.02807898	     73.08315493	      1.27554168	     20.33168403	      0.00000000	      0.00000000	     40.37267777	    -15.23007193	      3.63066070	     92.23129714	      1.60973981	    -17.35638014	      0.00000000	      0.00000000	     -8.97074149	    -22.71824015	    -18.94680590	     72.19923890	    -12.28742792	      9.19705620	     60.55841417	     87.43725203	      0.00000000	      0.00000000	     89.95859777	      8.96553725	     33.93595256	     40.56818451	     58.95071423	      0.00000000	      0.00000000
      3.84000000	    -19.54405843	      2.17743860	      2.27008310	     -0.39317873	      0.78531172	     -0.78295004	     62.05853373	     -0.60373742	    -10.08233038	     72.55831078	      1.26638142	     20.05717385	      0.00000000	      0.00000000	     40.17526954	    -15.39191711	      3.58477997	     92.13456720	      1.60805155	    -17.35253425	      0.00000000	      0.00000000	     -9.00721164	    -22.63487810	    -18.83196290	     72.12459900	    -12.30014948	      9.15616117	     60.62567861	     87.43266235	      0.00000000	      0.00000000	     89.95860740	      9.00890420	     34.07327252	     40.47160936	     59.10388414	      0.00000000	      0.00000000
      3.84500000	    -19.56788117	      2.27382539	      2.27579115	     -0.39297374	      0.78704442	     -0.78310008	     61.88909452	     -0.68235982	    -10.02679317	     72.21121106	      1.26032339	     19.96226331	      0.00000000	      0.00000000	     40.23078262	    -15.21878871	      3.51300336	     92.11999478	      1.60779722	    -17.33925442	      0.00000000	      0.00000000	     -8.89379806	    -22.71570360	    -18.82672125	     72.16093883	    -12.32094437	      9.15675864	     60.61822609	     87.43294176	      0.00000000	      0.00000000	     89.95871440	      9.01075429	     34.05784670	     40.50218707	     59.13863374	      0.00000000	      0.00000000
      3.85000000	    -19.56046871	      2.34354711	      2.27513409	     -0.39264298	      0.78905519	     -0.78312598	     61.60482907	     -0.70622736	     -9.96106956	     71.71535977	      1.25166915	     19.77455068	      0.00000000	      0.00000000	     40.21841202	    -15.07976245	      3.45363485	     92.04817795	      1.60654378	    -17.42788341	      0.00000000	      0.00000000	     -8.80891754	    -22.79354597	    -18.81959577	     72.12342798	    -12.31867284	      9.16691460	     60.60990281	     87.43457611	      0.00000000	      0.00000000	     89.95858614	      9.00890717	     34.06519893	     40.49544833	     59.18720098	      0.00000000	      0.00000000
      3.85500000	    -19.51245879	      2.33803798	      2.27245655	     -0.39220780	      0.79114596	     -0.78314508	     61.28416716	     -0.67222307	     -9.95182593	     71.27146273	      1.24392169	     19.57265526	      0.00000000	      0.00000000	     40.18707017	    -15.04245851	      3.42334961	     91.98669341	      1.60547067	    -17.43263190	      0.00000000	      0.00000000	     -8.76667098	    -22.79068482	    -18.81707809	     72.10274883	    -12.33138722	      9.15151187	     60.62302187	     87.43460214	      0.00000000	      0.00000000	     89.95862752	      9.03300307	     34.07496843	     40.50685833	     59.23530171	      0.00000000	      0.00000000
      3.86000000	    -19.50134876	      2.39842204	      2.27411602	     -0.39201889	      0.79302716	     -0.78328155	     61.05162861	     -0.70855287	     -9.91568953	     70.88835654	      1.23723522	     19.42558464	      0.00000000	      0.00000000	     40.20580030	    -14.92855128	      3.36181765	     91.98306095	      1.60540727	    -17.43549971	      0.00000000	      0.00000000	     -8.66562884	    -22.81893280	    -18.76231808	     72.14043311	    -12.36779099	      9.13679633	     60.62869718	     87.43418768	      0.00000000	      0.00000000	     89.95856155	      9.03635966	     34.07494490	     40.50474593	     59.26743557	      0.00000000	      0.00000000
      3.86500000	    -19.42738581	      2.38907292	      2.20624760	     -0.39153743	      0.79522245	     -0.78318744	     60.68023951	     -0.61325212	     -9.86686779	     70.33997365	      1.22766414	     19.07036524	      0.00000000	      0.00000000	     40.09366759	    -14.94533383	      3.29176726	     91.87801174	      1.60357382	    -17.42495676	      0.00000000	      0.00000000	     -8.62328043	    -22.83329046	    -18.70675395	     72.07875087	    -12.36596032	      9.13086207	     60.66001081	     87.43347593	      0.00000000	      0.00000000	     89.95860280	      9.05216045	     34.13447138	     40.46568574	     59.40622202	      0.00000000	      0.00000000
      3.87000000	    -19.42706544	      2.45047928	      2.19906209	     -0.39123752	      0.79721141	     -0.78328543	     60.43758316	     -0.64631316	     -9.82759057	     69.91100012	      1.22017714	     18.91070417	      0.00000000	      0.00000000	     40.12198729	    -14.78785418	      3.28680070	     91.87496934	      1.60352072	    -17.44299679	      0.00000000	      0.00000000	     -8.51818634	    -22.89745871	    -18.69430464	     72.08119151	    -12.38204685	      9.12105188	     60.65017335	     87.43078647	      0.00000000	      0.00000000	     89.95859959	      9.06571589	     34.13692649	     40.47284781	     59.44674099	      0.00000000	      0.00000000
      3.87500000	    -19.42059987	      2.50194980	      2.19654389	     -0.39092277	      0.79926645	     -0.78327835	     60.17009252	     -0.64848235	     -9.78537196	     69.45089930	      1.21214686	     18.74452889	      0.00000000	      0.00000000	     40.13824791	    -14.69079930	      3.23500315	     91.83910648	      1.60289479	    -17.43500566	      0.00000000	      0.00000000	     -8.41994467	    -22.94735191	    -18.66396772	     72.08902423	    -12.40725842	      9.10812266	     60.64977324	     87.42812623	      0.00000000	      0.00000000	     89.95856348	      9.07230907	     34.12971915	     40.49290429	     59.48185897	      0.00000000	      0.00000000
      3.88000000	    -19.40985746	      2.52247958	      2.16657254	     -0.39060082	      0.80141507	     -0.78320646	     59.88732752	     -0.60136624	     -9.73755572	     68.93681968	      1.20317448	     18.52216414	      0.00000000	      0.00000000	     40.13908917	    -14.65996143	      3.16634123	     91.77549224	      1.60178451	    -17.42434409	      0.00000000	      0.00000000	     -8.40743167	    -23.06354323	    -18.87145837	     72.03837294	    -12.33088572	      9.09066926	     60.67654734	     87.41757564	      0.00000000	      0.00000000	     89.95896683	      9.02704122	     34.09111325	     40.52150735	     59.51655659	      0.00000000	      0.00000000
      3.88500000	    -19.33946952	      2.53466553	      2.17702627	     -0.39011099	      0.80367295	     -0.78329692	     59.50681601	     -0.58973365	     -9.71328648	     68.42277174	      1.19420265	     18.28978966	      0.00000000	      0.00000000	     40.07167436	    -14.55124710	      3.20355810	     91.70927695	      1.60062884	    -17.43819118	      0.00000000	      0.00000000	     -8.30133995	    -22.96910622	    -18.66420060	     72.07662263	    -12.39056378	      9.05619840	     60.67740017	     87.41544973	      0.00000000	      0.00000000	     89.95855202	      9.03521064	     34.08922386	     40.55075776	     59.55568602	      0.00000000	      0.00000000
      3.89000000	    -19.32969253	      2.56263285	      2.16471157	     -0.38987031	      0.80569144	     -0.78337177	     59.22829953	     -0.58529507	     -9.69370703	     67.92007198	      1.18542888	     18.08592210	      0.00000000	      0.00000000	     40.11727456	    -14.47527492	      3.16641601	     91.72601543	      1.60092098	    -17.43856516	      0.00000000	      0.00000000	     -8.20883135	    -23.01763677	    -18.63812536	     72.07018185	    -12.44217349	      9.05545711	     60.67222536	     87.41618808	      0.00000000	      0.00000000	     89.95861453	      9.10256133	     34.09955993	     40.56418606	     59.59602477	      0.00000000	      0.00000000
      3.89500000	    -19.26260643	      2.56471967	      2.11838578	     -0.38940086	      0.80805319	     -0.78327545	     58.84912173	     -0.49960607	     -9.64348399	     67.34266808	      1.17535129	     17.77200329	      0.00000000	      0.00000000	     40.02244412	    -14.45002921	      3.14192284	     91.62094422	      1.59908714	    -17.42964948	      0.00000000	      0.00000000	     -8.15994495	    -23.02564462	    -18.59597741	     72.03808273	    -12.45406029	      9.05932028	     60.71733060	     87.41576986	      0.00000000	      0.00000000	     89.95852730	      9.10511739	     34.09905126	     40.54144301	     59.66085965	      0.00000000	      0.00000000
